<svg xmlns="http://www.w3.org/2000/svg" preserveAspectRatio="xMidYMid" width="16" height="24" viewBox="0 0 16 24"><defs><style>.cls-2{fill:#3bbde0}</style></defs><path d="M7.999 0C3.581 0 0 3.639 0 8.129a8.207 8.207 0 0 0 .465 2.734C2.171 16.564 7.999 24 7.999 24s5.827-7.436 7.534-13.136c.27-.768.428-1.588.457-2.442.005-.099.008-.197.008-.293C15.998 3.639 12.416 0 7.999 0zm0 12.11c-2.164 0-3.918-1.783-3.918-3.981 0-2.199 1.754-3.981 3.918-3.981s3.918 1.782 3.918 3.981c0 2.198-1.754 3.981-3.918 3.981z" id="path-1" class="cls-2" fill-rule="evenodd"/></svg>