<svg xmlns="http://www.w3.org/2000/svg" preserveAspectRatio="xMidYMid" width="18" height="23" viewBox="0 0 18 23"><defs><style>.cls-2{fill:#3bbde0}</style></defs><path d="M13.091 23C12 23 10.261 22.581 10 22H0V0h17v15c1.006.904 1 1.609 1 3.071C18 20.794 15.803 23 13.091 23zM15 2H2v18h7c-.455-.344-1-1.425-1-2 0-1.646.971-3 2-3H3v-2h12V2zm-1.909 12.786a3.283 3.283 0 0 0-3.273 3.285 3.284 3.284 0 0 0 3.273 3.286 3.284 3.284 0 0 0 3.273-3.286 3.283 3.283 0 0 0-3.273-3.285zM12 19v-3h1v2h1v1h-2zM2.99 9.989h11.007v2.022H2.99V9.989zm0-3.006h11.007v2.022H2.99V6.983zm0-2.967h11.007V6H2.99V4.016z" id="path-1" class="cls-2" fill-rule="evenodd"/></svg>